<svg width="28" height="18" viewBox="0 0 28 18" fill="none" xmlns="http://www.w3.org/2000/svg">
<path d="M27.2924 6.38C27.2075 6.21 26.9649 6.14 26.7587 6.21C26.5525 6.28 26.4675 6.48 26.5525 6.65C26.7465 7.01 26.8436 7.39 26.8436 7.78V11.3C26.8436 11.74 26.4918 12.12 26.0187 12.26V7.36C26.0187 7.18 25.8368 7.03 25.6184 7.03C25.4001 7.03 25.2182 7.18 25.2182 7.36V17.26H23.896V7.78C23.896 6.86 23.4593 6.01 22.683 5.36C22.6102 5.29 22.5253 5.23 22.4404 5.16C22.78 5.06 23.1439 5.01 23.4957 5.01H23.5078C24.4054 5.01 25.2424 5.3 25.8732 5.82C25.9581 5.89 26.0551 5.92 26.1643 5.92C26.2613 5.92 26.3705 5.89 26.4554 5.82C26.6131 5.69 26.6131 5.48 26.4554 5.35C26.0673 5.03 25.6184 4.78 25.1332 4.62C25.9581 4.18 26.5039 3.42 26.5039 2.55C26.5039 1.19 25.1696 0.0899963 23.5199 0.0899963C23.1075 0.0899963 22.6951 0.159996 22.3191 0.289996C22.1129 0.359996 22.028 0.559996 22.1129 0.729996C22.1978 0.899996 22.4404 0.969997 22.6466 0.899997C22.9256 0.799996 23.2167 0.749996 23.5199 0.749996C24.7208 0.749996 25.7034 1.56 25.7034 2.55C25.7034 3.54 24.7208 4.35 23.5199 4.35H23.5078C23.0226 4.35 22.5617 4.22 22.1856 3.98C22.5374 3.58 22.7436 3.09 22.7436 2.55C22.7436 1.19 21.4093 0.0899963 19.7596 0.0899963C19.4079 0.0899963 19.0561 0.139996 18.7286 0.239996C18.5224 0.299996 18.4132 0.489996 18.486 0.669997C18.5588 0.839997 18.7892 0.929996 19.0076 0.869996C19.2502 0.799996 19.5049 0.759996 19.7596 0.759996C20.9605 0.759996 21.943 1.57 21.943 2.56C21.943 3.55 20.9605 4.36 19.7596 4.36H19.7475C19.2623 4.36 18.8014 4.23 18.4253 3.99C18.7771 3.59 18.9833 3.1 18.9833 2.56C18.9833 1.2 17.649 0.0999963 15.9993 0.0999963C15.6233 0.0999963 15.2473 0.159996 14.8955 0.269996C14.6893 0.339996 14.5922 0.529996 14.665 0.699996C14.7499 0.869996 14.9804 0.949997 15.1866 0.889997C15.4413 0.809997 15.7203 0.759996 15.9872 0.759996C17.1881 0.759996 18.1706 1.57 18.1706 2.56C18.1706 3.55 17.1881 4.36 15.9872 4.36H15.9751C15.4899 4.36 15.0289 4.23 14.6529 3.99C15.0047 3.59 15.2109 3.1 15.2109 2.56C15.2109 1.2 13.8766 0.0999963 12.2269 0.0999963C11.8872 0.0999963 11.5476 0.149996 11.2322 0.239996C11.026 0.299996 10.9168 0.489996 10.9896 0.659997C11.0624 0.829997 11.2929 0.919996 11.4991 0.859996C11.7295 0.789996 11.9721 0.759996 12.2269 0.759996C13.4277 0.759996 14.4103 1.57 14.4103 2.56C14.4103 3.55 13.4277 4.36 12.2269 4.36H12.2147C11.7295 4.36 11.2686 4.23 10.8926 3.99C11.2443 3.59 11.4506 3.1 11.4506 2.56C11.4506 1.2 10.1162 0.0999963 8.46656 0.0999963C8.05414 0.0999963 7.64172 0.169996 7.26569 0.309996C7.09587 0.369996 6.99883 0.559996 7.08374 0.729996C7.18078 0.889996 7.41125 0.969997 7.61746 0.899997C7.89645 0.799996 8.18757 0.749996 8.49082 0.749996C9.6917 0.749996 10.6742 1.56 10.6742 2.55C10.6742 3.54 9.6917 4.35 8.49082 4.35C8.00562 4.35 7.54468 4.22 7.16865 3.98C7.52042 3.58 7.72663 3.09 7.72663 2.55C7.72663 1.19 6.39232 0.0899963 4.74264 0.0899963C3.09295 0.0899963 1.75865 1.19 1.75865 2.55C1.75865 3.42 2.3045 4.18 3.12934 4.62C1.62522 5.16 0.582031 6.39 0.582031 7.83V11.3C0.582031 12.11 1.28557 12.79 2.20746 12.94V17.59C2.20746 17.77 2.38941 17.92 2.60775 17.92H6.85327H8.47869H10.1041H10.6014H12.2269H13.8523H14.3496H15.9751H17.6005H18.0978H19.7232H21.3487H21.846H23.4714H25.5942C25.8125 17.92 25.9945 17.77 25.9945 17.59V12.94C26.9285 12.79 27.6199 12.11 27.6199 11.3V7.78C27.6563 7.29 27.535 6.82 27.2924 6.38ZM21.6277 4.47C21.7126 4.53 21.7975 4.58 21.8945 4.63C21.8096 4.66 21.7247 4.7 21.6398 4.73C21.5549 4.69 21.4578 4.66 21.3729 4.63C21.4578 4.58 21.5428 4.53 21.6277 4.47ZM17.8673 4.47C17.9523 4.53 18.0372 4.58 18.1342 4.63C18.0493 4.66 17.9644 4.7 17.8795 4.73C17.7946 4.69 17.6975 4.66 17.6126 4.63C17.7097 4.58 17.7946 4.53 17.8673 4.47ZM14.1192 4.47C14.2041 4.53 14.289 4.58 14.386 4.63C14.3011 4.66 14.2162 4.7 14.1313 4.73C14.0464 4.69 13.9493 4.66 13.8644 4.63C13.9493 4.58 14.0343 4.53 14.1192 4.47ZM10.3588 4.47C10.4438 4.53 10.5287 4.58 10.6257 4.63C10.5408 4.66 10.4559 4.7 10.371 4.73C10.2861 4.69 10.189 4.66 10.1041 4.63C10.189 4.58 10.2739 4.53 10.3588 4.47ZM2.5471 2.56C2.5471 1.57 3.52963 0.759996 4.73051 0.759996C5.93138 0.759996 6.91392 1.57 6.91392 2.56C6.91392 3.55 5.93138 4.36 4.73051 4.36C3.52963 4.36 2.5471 3.55 2.5471 2.56ZM6.87753 4.63C6.79261 4.66 6.7077 4.7 6.62279 4.73C6.53788 4.69 6.44084 4.66 6.35593 4.63C6.44084 4.58 6.52575 4.53 6.61066 4.48C6.69557 4.53 6.78048 4.58 6.87753 4.63ZM8.0784 17.26H7.25356V12.94C7.55681 12.89 7.8358 12.78 8.0784 12.63V17.26ZM8.0784 11.3C8.0784 11.74 7.72663 12.12 7.25356 12.26V7.36C7.25356 7.18 7.07161 7.03 6.85327 7.03C6.63492 7.03 6.45297 7.18 6.45297 7.36V17.26H6.35593H5.1308V10.86C5.1308 10.68 4.94885 10.53 4.73051 10.53C4.51217 10.53 4.33022 10.68 4.33022 10.86V17.26H3.00804V7.36C3.00804 7.18 2.82609 7.03 2.60775 7.03C2.38941 7.03 2.20746 7.18 2.20746 7.36V12.26C1.72226 12.12 1.38261 11.75 1.38261 11.3V7.83C1.38261 6.29 2.88674 5.03 4.73051 5.02C5.62813 5.01 6.4651 5.3 7.108 5.83C7.73876 6.35 8.09053 7.05 8.09053 7.78L8.0784 11.3ZM11.8387 17.26H11.0139V12.94C11.3171 12.89 11.5961 12.78 11.8387 12.63V17.26ZM11.8387 11.3C11.8387 11.74 11.4869 12.12 11.0139 12.26V7.36C11.0139 7.18 10.8319 7.03 10.6136 7.03C10.3952 7.03 10.2133 7.18 10.2133 7.36V17.26H10.1162H8.89111V11.3V7.78C8.89111 6.86 8.45443 6.01 7.67811 5.36C7.5932 5.29 7.50829 5.23 7.42338 5.17C7.76302 5.07 8.12692 5.02 8.49082 5.02H8.50295C9.40057 5.02 10.2375 5.31 10.8683 5.83C11.4991 6.35 11.8508 7.05 11.8508 7.78L11.8387 11.3ZM15.599 17.26H14.7742V12.94C15.0774 12.89 15.3564 12.78 15.599 12.63V17.26ZM15.599 11.3C15.599 11.74 15.2473 12.12 14.7742 12.26V9.88C14.7742 9.7 14.5922 9.55 14.3739 9.55C14.1556 9.55 13.9736 9.7 13.9736 9.88V17.27H13.8766H12.6514V7.78C12.6514 6.86 12.2147 6.01 11.4384 5.36C11.3414 5.29 11.2565 5.23 11.1837 5.16C11.5233 5.06 11.8872 5.01 12.2511 5.01H12.2633C13.1609 5.01 13.9979 5.3 14.6286 5.82C15.2594 6.34 15.6112 7.04 15.6112 7.77L15.599 11.3ZM19.3472 17.26H18.5224V12.94C18.8256 12.89 19.1046 12.78 19.3472 12.63V17.26ZM19.3472 11.3C19.3472 11.74 18.9954 12.12 18.5224 12.26V7.36C18.5224 7.18 18.3404 7.03 18.1221 7.03C17.9037 7.03 17.7218 7.18 17.7218 7.36V17.26H17.6369H16.4117V7.78C16.4117 6.86 15.9751 6.01 15.1987 5.36C15.1138 5.29 15.0289 5.23 14.944 5.17C15.2836 5.07 15.6475 5.02 15.9993 5.02H16.0114C16.9091 5.02 17.746 5.31 18.3768 5.83C19.0076 6.35 19.3593 7.05 19.3593 7.78L19.3472 11.3ZM23.1075 17.26H22.2827V12.94C22.5859 12.89 22.8649 12.78 23.1075 12.63V17.26ZM23.1075 11.3C23.1075 11.74 22.7558 12.12 22.2827 12.26V7.36C22.2827 7.18 22.1007 7.03 21.8824 7.03C21.6641 7.03 21.4821 7.18 21.4821 7.36V17.26H21.3972H20.1721V7.78C20.1721 6.86 19.7354 6.01 18.9591 5.36C18.8741 5.29 18.7892 5.23 18.7043 5.17C19.044 5.07 19.4079 5.02 19.7596 5.02H19.7718C20.6694 5.02 21.5064 5.31 22.1371 5.83C22.7679 6.35 23.1197 7.05 23.1197 7.78L23.1075 11.3Z" fill="white"/>
</svg>
