<svg width="81" height="30" viewBox="0 0 81 30" xmlns="http://www.w3.org/2000/svg" fill="none"><path d="M70.547 25.311h-2.584v1.546l.005.647h2.574l.01-1.076-.005-1.117zM68.821 19.959c.151-.414.313-.859.52-1.511l.217-.682h-2.66l-.126.445c-.313.879-.454 1.046-.676 1.38-.106.162-.267.283-.474.364h3.2v.005zM69.659 17.443l.686-2.193h-2.766c-.197.773-.424 1.607-.591 2.193h2.67zM70.543 24.988l-.01-.97c-.005-.435-.045-.849-.116-1.223h-2.953l.166.182c.222.334.333.798.333 1.385v.621h2.579v.005zM70.351 22.471c-.04-.167-.086-.323-.141-.465-.156-.419-.358-.768-.601-1.046-.247-.278-.53-.495-.853-.657l-.05-.025v-.005h-6.223v2.193h7.868v.005zM65.087 15.25h-2.604v2.193h2.604v-2.193zM65.087 25.311h-2.604v2.193h2.604v-2.193zM65.087 22.794h-2.604v2.193h2.604v-2.193zM65.087 17.766h-2.604v2.193h2.604v-2.193zM43.364 25.311h-2.584v1.546l.005.647h2.574l.01-1.076-.005-1.117zM43.026 22.006c-.156-.419-.358-.768-.601-1.046-.247-.278-.53-.495-.853-.657l-.05-.025v-.005h-9.842v.005l-.05.025c-.323.162-.606.379-.853.657s-.444.621-.601 1.046c-.056.142-.101.298-.141.465h13.132000000000001c-.04-.162-.086-.318-.141-.465zM40.78 24.987h2.584l-.01-.97c-.005-.434-.045-.849-.116-1.223h-2.953l.167.182c.222.334.333.798.333 1.385v.627h-.005zM35.304 22.794v2.193h2.604v-2.193h-2.604zM35.304 25.311v2.193h2.604v-2.193h-2.604zM29.838 26.427l.01 1.076h2.574l.005-.647v-1.546h-2.584l-.005 1.117zM29.858 24.022l-.01.97h2.584v-.622c0-.586.111-1.051.333-1.384l.167-.182h-2.953c-.076.369-.116.783-.121 1.218zM37.898 17.766h-2.589v2.193h2.589v-2.193zM40.326 17.766v.334c0 .586-.111 1.051-.333 1.384-.172.258-.474.414-.903.475h2.67c.914 0 1.126-1.036 1.136-1.673l.01-.52h-2.579zM42.9 15.25h-2.599c.015.212.025.425.025.642v1.551h2.584l.005-1.117c0-.379-.005-.733-.015-1.076zM37.898 15.25h-2.589v2.193h2.589v-2.193zM30.303 17.443h2.584v-1.551c0-.217.01-.43.025-.642h-2.599c-.01.344-.01.697-.01 1.071-.005.561-.005.859 0 1.122zM33.215 19.484c-.222-.334-.333-.798-.333-1.384v-.334h-2.579l.01.52c.01.637.187 1.673 1.151 1.673h2.655c-.429-.061-.732-.217-.903-.475zM5.057 7.706h-2.604v2.193h2.604v-2.193zM5.057 5.19h-2.604v2.193h2.604v-2.193zM10.468 7.706h-2.589v2.193h2.589v-2.193zM9.605 13.022c.237.268.358.5.358.874 0 .465-.126.809-.379 1.036h2.781c.071-.278.111-.586.111-.945 0-.384-.04-.839-.121-1.248h-3.144c.151.066.283.157.394.283zM10.468 5.19h-2.589v2.193h2.589v-2.193zM10.468.162h-2.589v2.193h2.589v-2.193zM2.155 2.961c.172.172.268.445.298.824v1.081h2.604v-1.086h-.015c0-.399-.04-.768-.111-1.102h-3.447c.288.03.51.126.671.283zM4.85 2.355c-.156-.52-.399-.955-.742-1.304-.621-.632-1.696-.95-2.801-.95-.116 0-1.136.005-1.307.02v2.233h4.85zM10.468 2.678h-2.589v2.193h2.589v-2.193zM7.878 10.232h-2.821v-.01h-2.604v2.193h9.837l-.086-.268c-.187-.485-.454-.904-.808-1.258-.267-.268-.575-.49-.918-.667h-2.594v.01h-.005zM10.437 17.261l.025.182c.272-.131.464-.288.691-.475.389-.323.697-.743.924-1.253.071-.152.131-.308.187-.465h-3.331c.868.536 1.292 1.233 1.504 2.011zM20.496 8.676v-.197h-2.624v.379c0 .419-.136.748-.404.99l-.066.056h2.947c.096-.384.146-.788.146-1.228zM15.398 9.737c-.222-.313-.333-.707-.333-1.187v-.844h-2.589v.768c0 .49.055.965.172 1.42h2.897l-.146-.157zM17.584 3.042c.106.141.182.293.227.45.04.157.061.293.061.414v.965h2.624v-.859c0-.45-.071-.894-.202-1.334h-3.124c.167.101.308.222.414.364zM20.491 5.19h-8.015v2.193h8.015v-2.193zM12.476 4.012v.854h2.589v-.96c0-.141.025-.298.081-.46.055-.162.136-.313.252-.45.106-.126.237-.232.399-.318h-3.129c-.126.445-.192.894-.192 1.334zM13.395 1.314c-.268.318-.469.662-.616 1.041h7.399c-.157-.399-.379-.763-.651-1.086-.323-.379-.737-.682-1.242-.92-.505-.232-1.095-.349-1.782-.349-.732 0-1.353.121-1.862.369-.505.248-.924.561-1.247.945zM14.662 12.38c.51.227 1.126.344 1.842.344.585 0 1.125-.091 1.61-.278.485-.187.903-.455 1.257-.809.353-.354.631-.778.828-1.278l.05-.136h-7.505c.151.465.373.874.671 1.233.323.389.737.697 1.247.925zM24.539 7.706h-2.604v2.193h2.604v-2.193zM24.539 2.678h-2.604v2.193h2.604v-2.193zM24.539 10.222h-2.604v2.193h2.604v-2.193zM24.539.162h-2.604v2.193h2.604v-2.193zM29.949 5.189h-8.015v2.193h8.015v-2.193zM29.949 10.222h-2.569v2.193h2.569v-2.193zM29.949 2.678h-2.569v2.193h2.569v-2.193zM29.949.162h-2.569v2.193h2.569v-2.193zM29.949 7.706h-2.569v2.193h2.569v-2.193zM36.424 7.706h-2.589v2.193h2.589v-2.193zM36.424 10.222h-2.589v2.193h2.589v-2.193zM36.424 5.189h-2.589v2.193h2.589v-2.193zM36.424 2.708h-2.589v2.158h2.589v-2.158zM39.099.162h-7.944v2.193h7.944v-2.193zM42.703 10.222h-2.604v2.193h2.604v-2.193zM42.703 7.706h-2.604v2.193h2.604v-2.193zM42.703 2.678h-2.604v2.193h2.604v-2.193zM46.973 1.051c-.353-.323-.777-.566-1.277-.718-.242-.076-.495-.131-.757-.172h-4.845v2.193h7.727l-.025-.066c-.192-.5-.469-.915-.823-1.238zM47.053 6.63c.333-.349.59-.768.772-1.258l.066-.182h-7.793v2.193h5.602l.131-.051c.479-.192.888-.354 1.221-.702zM47.932 2.678h-2.973c.368.152.636.637.636 1.218 0 .394-.121.743-.313.975h2.725c.066-.227.096-.45.096-.808-.005-.515-.061-.98-.172-1.385zM10.392 20.283h-2.584v2.193h2.584c.005-.515.005-1.081.005-1.703l-.005-.49zM10.21 24.988c.101-.425.156-.905.167-1.435l.01-.758h-2.579v.566c0 .586-.111 1.051-.333 1.385-.061.091-.141.172-.232.237h2.968v.005zM10.235 17.766h-3.255l.045.025c.222.152.389.354.505.611.116.258.187.556.222.889.025.217.04.434.045.662h2.589c-.005-.445-.02-.859-.04-1.248-.015-.344-.05-.657-.111-.94zM9.307 28.08c.237.268.358.591.358.96l-.01.96h2.624l.005-1.081c0-.389-.04-.758-.121-1.102h-3.185c.126.071.237.157.328.263zM5.057 17.766h-2.589v2.193h2.589v-2.193zM2.468 25.311v2.193h9.61l-.066-.187c-.187-.485-.454-.904-.808-1.258-.308-.308-.666-.556-1.08-.743l-7.656-.005zM10.155 17.443l-.101-.288c-.278-.718-.712-1.238-1.302-1.546-.303-.162-.641-.278-1.009-.354h-5.274v2.193h7.687v-.005zM5.062 24.988l-.005-.187v-2.006h-2.589v2.193h2.594zM5.057 20.283h-2.589v2.193h2.589v-2.193zM11.749 19.06v.894h2.589v-1.006c0-.141.025-.298.081-.46.056-.162.136-.313.252-.45.091-.106.197-.202.328-.278h-3.069c-.121.44-.182.869-.182 1.299zM14.672 24.785c-.222-.313-.333-.707-.333-1.188v-.803h-2.589v.728c0 .505.061.995.182 1.46h2.932c-.076-.051-.136-.121-.192-.197zM19.77 23.724v-.93h-2.625v1.107c0 .419-.136.748-.404.99l-.121.096h2.988c.106-.389.162-.809.162-1.263zM14.339 20.283h-2.589v2.193h2.589v-2.193zM15.777 15.048c-.732 0-1.353.121-1.862.369-.51.248-.924.561-1.247.945-.278.329-.485.687-.631 1.081h7.429c-.162-.414-.383-.788-.671-1.127-.323-.379-.737-.682-1.242-.92-.5-.232-1.095-.349-1.776-.349zM17.387 27.494c.485-.187.903-.455 1.257-.809.353-.354.631-.778.828-1.278l.035-.096h-7.48c.152.45.368.844.656 1.193.323.389.742.697 1.252.925.51.227 1.126.344 1.842.344.585 0 1.12-.091 1.61-.278zM19.578 17.766h-3.074c.141.091.262.202.353.323.106.141.182.293.227.45.04.157.061.293.061.414v1.006h2.624v-.894c0-.44-.066-.869-.192-1.299zM19.769 20.283h-2.624v2.193h2.624v-2.193zM28.369 17.766h-2.841l.066.055c.202.202.308.515.308.935 0 .384-.101.697-.308.935-.101.116-.232.207-.399.268h2.963c.197-.429.293-.859.293-1.294.005-.318-.025-.622-.081-.899zM28.475 24.987c.081-.349.121-.728.121-1.137 0-.263-.03-.536-.091-.809l-.066-.243h-2.619c.162.238.242.541.242.91 0 .419-.096.773-.288 1.061-.06.086-.131.162-.222.222h2.922v-.005zM28.294 17.443c-.151-.541-.419-.995-.798-1.369-.419-.409-.959-.682-1.63-.824h-5.198v2.193h7.626zM23.277 22.471v-.152h1.454c.298 0 .54.051.737.152h2.857l-.106-.217c-.131-.248-.298-.465-.505-.657-.202-.192-.449-.333-.737-.429v-.091c.439-.182.772-.445 1.004-.798h-7.313v2.193h2.609zM26.123 27.504l.283-.091c.454-.167.843-.414 1.166-.738.323-.323.575-.723.757-1.198l.061-.167h-7.722v2.193h5.456zM23.272 17.766h-2.604v2.193h2.604v-2.193zM23.272 22.794h-2.604v2.193h2.604v-2.193zM49.582 18.09c.106.141.182.293.227.45.04.157.061.293.061.414v1.006h2.624v-.894c0-.435-.066-.869-.192-1.299h-3.074c.141.091.262.202.353.323zM52.338 24.987c.106-.389.156-.809.156-1.263v-.197h-2.624v.379c0 .419-.136.748-.404.99l-.121.096h2.993v-.005zM44.48 19.959h2.589v-1.006c0-.142.025-.298.081-.46.056-.162.136-.313.252-.45.091-.106.197-.202.328-.278h-3.069c-.121.434-.182.869-.182 1.299v.894zM52.494 20.283h-8.015v2.193h8.015v-2.193zM48.503 15.048c-.732 0-1.353.121-1.862.369-.51.248-.924.561-1.247.945-.278.329-.484.687-.631 1.081h7.429c-.161-.414-.383-.788-.671-1.127-.323-.379-.737-.682-1.242-.92-.5-.232-1.09-.349-1.776-.349zM44.661 24.987h2.932l-.192-.202c-.222-.313-.333-.707-.333-1.188v-.803h-2.589v.728c0 .51.061.995.182 1.465zM48.502 27.771c.585 0 1.125-.091 1.61-.278.485-.187.904-.455 1.257-.809.353-.354.631-.778.828-1.278l.035-.096h-7.475c.151.45.368.844.656 1.193.323.389.742.697 1.252.925.505.232 1.12.344 1.837.344zM55.871 25.311h-2.604v2.193h2.604v-2.193zM61.281 17.766h-2.569v2.193h2.569v-2.193zM61.281 25.311h-2.569v2.193h2.569v-2.193zM61.281 15.25h-2.569v2.193h2.569v-2.193zM61.281 22.794h-2.569v2.193h2.569v-2.193zM55.871 22.794h-2.604v2.193h2.604v-2.193zM61.281 20.283h-8.015v2.193h8.015v-2.193zM55.871 17.766h-2.604v2.193h2.604v-2.193zM55.871 15.25h-2.604v2.193h2.604v-2.193zM77.684 25.311l.525 2.193h2.791l-.631-2.193h-2.685zM73.384 20.283l-.631 2.188h2.564l.293-1.465.151-.723h-2.377zM71.931 25.311l-.631 2.193h2.746l.303-1.107.283-1.086h-2.7zM77.048 22.794v.01h-1.797l.005-.01h-2.599l-.631 2.193h8.247l-.631-2.193h-2.594zM74.832 15.25l-.631 2.193h3.896l-.631-2.193h-2.635zM76.559 20.283l.146.743.278 1.445h2.569l-.636-2.188h-2.357zM74.111 17.766l-.636 2.193h2.352l.288-1.435h.091l.288 1.435h2.332l-.631-2.193h-4.083z" fill="#fff" fill-opacity=".6"></path></svg>