<svg width="40" height="28" viewBox="0 0 40 28" xmlns="http://www.w3.org/2000/svg" fill="none"><path d="M22.231 20.397c-1.246-3.615-4.603-3.656-6.533-3.163l.201-5.69c7.739-.883 8-11.544 8-11.544h-2.633c0 7.847-4.08 9.428-5.246 9.428l.241-9.408-2.714-.021-.764 27.401h2.734l.161-8.134c5.729-1.931 5.085 8.093 5.085 8.093h2.593s.442-2.444-1.126-6.963zM4.06 19.802c-1.447.39-2.754 1.397-2.754 3.595 0 3.389 2.673 4.293 4.322 4.54.583.082.724.062.764.062.281-.062.563-.062.824-.144 1.307-.452 2.412-1.417 2.412-3.41 0-4.909-5.568-4.642-5.568-4.642zm2.211 5.69l-.181.062c-.181.041-.362.041-.523.021-1.146-.082-1.91-.431-1.91-1.931 0-.76.462-1.315 1.065-1.438 1.487 0 2.573.164 2.573 1.951 0 .76-.482 1.109-1.025 1.335zM8.301.063l.161 6.45c0 1.972-.04 3.286-.161 4.765-.221 2.547-.523 5.505-2.754 5.505s-2.553-3.677-2.774-5.484c-.08-.719-.241-1.808-.241-4.806 0-2.999.221-6.368.221-6.368h-2.553s-.201 4.067-.201 6.306.141 3.78.221 4.848c.362 4.827 1.447 7.497 5.367 7.497 3.618 0 4.945-2.609 5.347-7.538.141-1.664.141-2.896.141-4.724l-.161-6.368-2.613-.082zM33.166 27.709h-2.593l.342-27.627h2.713l-.462 27.627zM26.975 14.029c0-1.479-.643-12.037 5.125-10.168l-.04-2.095c-1.99-.472-5.005-.308-6.573 3.266-1.307 2.978-1.287 7.066-1.287 9.017 0 1.951.04 5.505 1.287 8.319 1.568 3.574 4.583 3.738 6.573 3.266l.04-2.095c-5.527 1.787-5.125-8.031-5.125-9.51zM37.226 14.029c0-1.479.643-12.037-5.126-10.168l.04-2.095c1.99-.472 5.005-.308 6.573 3.266 1.306 2.978 1.286 7.066 1.286 9.017 0 1.951-.04 5.505-1.286 8.319-1.568 3.574-4.583 3.738-6.573 3.266l-.04-2.095c5.528 1.787 5.126-8.031 5.126-9.51z" fill="#fff"></path></svg>