<svg width="98" height="36" viewBox="0 0 98 36" fill="none" xmlns="http://www.w3.org/2000/svg">
<path d="M85.3537 30.3729H82.2273V32.2284C82.2273 32.477 82.2273 32.7499 82.2334 33.0045H85.3476C85.3537 32.5983 85.3598 32.1435 85.3598 31.713C85.3537 31.1794 85.3537 30.7549 85.3537 30.3729Z" fill="white"/>
<path d="M83.2654 23.9515C83.4486 23.4543 83.644 22.9207 83.8944 22.1384C83.9677 21.908 84.0593 21.623 84.157 21.3199H80.9389C80.8473 21.6534 80.7863 21.8535 80.7863 21.8535C80.4077 22.9085 80.2367 23.1086 79.968 23.5088C79.8398 23.7029 79.6444 23.8484 79.394 23.9454H83.2654V23.9515Z" fill="white"/>
<path d="M84.2791 20.9318C84.56 20.0465 84.8775 19.0278 85.1095 18.3001H81.7633C81.5251 19.2279 81.2503 20.2284 81.0488 20.9318H84.2791Z" fill="white"/>
<path d="M85.3476 29.9848C85.3415 29.5968 85.3415 29.2329 85.3354 28.8206C85.3293 28.2991 85.2805 27.8019 85.195 27.3532H81.6228C81.7022 27.4199 81.7694 27.4927 81.8243 27.5715C82.093 27.9717 82.2273 28.5296 82.2273 29.2329V29.9788H85.3476V29.9848Z" fill="white"/>
<path d="M85.1157 26.9652C85.0668 26.7651 85.0119 26.5771 84.9447 26.4073C84.7554 25.904 84.5111 25.4856 84.218 25.1521C83.9188 24.8186 83.5769 24.5579 83.1861 24.3638C83.1678 24.3517 83.1433 24.3456 83.125 24.3335C83.125 24.3335 83.125 24.3335 83.125 24.3275H75.5959V26.9591H85.1157V26.9652Z" fill="white"/>
<path d="M78.7468 18.3002H75.5959V20.9318H78.7468V18.3002Z" fill="white"/>
<path d="M78.7468 30.3729H75.5959V33.0045H78.7468V30.3729Z" fill="white"/>
<path d="M78.7468 27.3532H75.5959V29.9848H78.7468V27.3532Z" fill="white"/>
<path d="M78.7468 21.3199H75.5959V23.9515H78.7468V21.3199Z" fill="white"/>
<path d="M52.4653 30.3729H49.3389V32.2284C49.3389 32.477 49.3389 32.7499 49.345 33.0045H52.4592C52.4653 32.5983 52.4714 32.1435 52.4714 31.713C52.4714 31.1794 52.4714 30.7549 52.4653 30.3729Z" fill="white"/>
<path d="M52.0565 26.4073C51.8672 25.904 51.6229 25.4856 51.3298 25.1521C51.0306 24.8186 50.6887 24.5578 50.2979 24.3638C50.2795 24.3517 50.2551 24.3456 50.2368 24.3335C50.2368 24.3335 50.2368 24.3335 50.2368 24.3274H45.8586H42.7077H38.3295C38.3295 24.3274 38.3295 24.3274 38.3295 24.3335C38.3112 24.3456 38.2868 24.3517 38.2685 24.3638C37.8777 24.5578 37.5357 24.8186 37.2365 25.1521C36.9373 25.4856 36.6991 25.8979 36.5098 26.4073C36.4427 26.577 36.3877 26.765 36.3389 26.9651H42.7077H45.8586H52.2275C52.1786 26.7711 52.1236 26.5831 52.0565 26.4073Z" fill="white"/>
<path d="M49.3387 29.9848H52.4651C52.459 29.5967 52.459 29.2329 52.4529 28.8206C52.4468 28.2991 52.3979 27.8019 52.3124 27.3532H48.7402C48.8196 27.4199 48.8868 27.4926 48.9417 27.5715C49.2104 27.9717 49.3448 28.5295 49.3448 29.2329V29.9848H49.3387Z" fill="white"/>
<path d="M42.7134 27.3532V29.9848H45.8642V27.3532H42.7134Z" fill="white"/>
<path d="M42.7134 30.3729V33.0045H45.8642V30.3729H42.7134Z" fill="white"/>
<path d="M36.1003 31.713C36.1003 32.1435 36.1064 32.5983 36.1126 33.0045H39.2268C39.2329 32.7499 39.2329 32.477 39.2329 32.2284V30.3729H36.1064C36.1064 30.7549 36.1003 31.1794 36.1003 31.713Z" fill="white"/>
<path d="M36.1248 28.8267C36.1187 29.239 36.1125 29.5968 36.1125 29.9909H39.239V29.2451C39.239 28.5417 39.3733 27.9838 39.642 27.5836C39.6969 27.4987 39.7641 27.432 39.8435 27.3653H36.2713C36.1797 27.808 36.1309 28.3052 36.1248 28.8267Z" fill="white"/>
<path d="M45.8523 21.3199H42.7197V23.9515H45.8523V21.3199Z" fill="white"/>
<path d="M48.7893 21.3199V21.7201C48.7893 22.4234 48.6549 22.9813 48.3862 23.3815C48.1786 23.6908 47.8122 23.8787 47.2932 23.9515H50.5234C51.6287 23.9515 51.8851 22.7084 51.8974 21.9444C51.9035 21.6897 51.9035 21.4957 51.9096 21.3199H48.7893Z" fill="white"/>
<path d="M51.9035 18.3001H48.7588C48.7771 18.5548 48.7893 18.8095 48.7893 19.0702V20.9318H51.9157C51.9218 20.6165 51.9219 20.2587 51.9219 19.5917C51.9219 19.1369 51.9157 18.7125 51.9035 18.3001Z" fill="white"/>
<path d="M45.852 18.3001H42.7195V20.9318H45.852V18.3001Z" fill="white"/>
<path d="M36.6628 20.9318H39.7892V19.0703C39.7892 18.8095 39.8014 18.5548 39.8197 18.3002H36.675C36.6628 18.7125 36.6628 19.137 36.6628 19.5857C36.6567 20.2587 36.6567 20.6165 36.6628 20.9318Z" fill="white"/>
<path d="M40.1862 23.3815C39.9175 22.9813 39.7832 22.4234 39.7832 21.7201V21.3199H36.6628C36.6628 21.4957 36.6689 21.6897 36.6751 21.9444C36.6873 22.7084 36.901 23.9515 38.0673 23.9515H41.2792C40.7602 23.8787 40.3938 23.6908 40.1862 23.3815Z" fill="white"/>
<path d="M6.11862 9.24707H2.96777V11.8787H6.11862V9.24707Z" fill="white"/>
<path d="M6.11862 6.22739H2.96777V8.85902H6.11862V6.22739Z" fill="white"/>
<path d="M12.6645 9.24707H9.53198V11.8787H12.6645V9.24707Z" fill="white"/>
<path d="M11.6203 15.6261C11.9073 15.9475 12.0539 16.2264 12.0539 16.6751C12.0539 17.233 11.9012 17.6453 11.5959 17.9182H14.9605C15.046 17.5847 15.0948 17.2148 15.0948 16.7843C15.0948 16.3234 15.046 15.7777 14.9483 15.2865H11.144C11.3272 15.3654 11.486 15.4745 11.6203 15.6261Z" fill="white"/>
<path d="M12.6645 6.22739H9.53198V8.85902H12.6645V6.22739Z" fill="white"/>
<path d="M12.6645 0.194641H9.53198V2.82627H12.6645V0.194641Z" fill="white"/>
<path d="M2.60755 3.55331C2.81516 3.75948 2.93118 4.08691 2.96782 4.54169V5.83932H6.11867V4.53563H6.10035C6.10035 4.0566 6.0515 3.61395 5.96601 3.21375H1.79541C2.14347 3.25013 2.41215 3.36534 2.60755 3.55331Z" fill="white"/>
<path d="M5.86815 2.82567C5.67886 2.20112 5.38576 1.67964 4.97053 1.26125C4.21945 0.503288 2.91881 0.121277 1.58153 0.121277C1.44109 0.121277 0.207614 0.127341 0 0.145532V2.82567H5.86815Z" fill="white"/>
<path d="M12.6645 3.21375H9.53198V5.84538H12.6645V3.21375Z" fill="white"/>
<path d="M9.53204 12.2789H6.11862V12.2668H2.96777V14.8984H14.8689C14.8384 14.7832 14.8018 14.6741 14.7651 14.577C14.5392 13.9949 14.2156 13.4916 13.7881 13.0672C13.4645 12.7458 13.092 12.479 12.6768 12.2668H9.53815V12.2789H9.53204Z" fill="white"/>
<path d="M12.6278 20.7135C12.6522 20.8408 12.6522 20.8348 12.6583 20.9318C12.9881 20.7741 13.2201 20.5861 13.4949 20.3618C13.9651 19.9737 14.3375 19.4704 14.6123 18.858C14.6978 18.6761 14.7711 18.4881 14.8383 18.3001H10.8081C11.8584 18.9429 12.3713 19.7797 12.6278 20.7135Z" fill="white"/>
<path d="M24.7976 10.4113V10.1748H21.6223V10.6296C21.6223 11.1329 21.4575 11.527 21.1338 11.8181C21.1094 11.8423 21.0789 11.8605 21.0544 11.8848H24.6205C24.7365 11.424 24.7976 10.9389 24.7976 10.4113Z" fill="white"/>
<path d="M18.6303 11.6847C18.3616 11.3087 18.2273 10.8358 18.2273 10.2597V9.2471H15.0947V10.1688C15.0947 10.757 15.1619 11.3269 15.3023 11.8727H18.8074C18.7463 11.8181 18.6852 11.7575 18.6303 11.6847Z" fill="white"/>
<path d="M21.2742 3.65033C21.4024 3.82011 21.494 4.00202 21.5489 4.19C21.5978 4.37797 21.6222 4.54169 21.6222 4.68722V5.84538H24.7975V4.81455C24.7975 4.27489 24.712 3.74128 24.5532 3.21375H20.7734C20.9749 3.33502 21.1459 3.48055 21.2742 3.65033Z" fill="white"/>
<path d="M24.7915 6.22742H15.0947V8.85905H24.7915V6.22742Z" fill="white"/>
<path d="M15.0947 4.81455V5.83932H18.2273V4.68722C18.2273 4.51743 18.2578 4.32946 18.325 4.13542C18.3921 3.94139 18.4898 3.75948 18.6303 3.59576C18.7585 3.44416 18.9173 3.31683 19.1127 3.21375H15.3268C15.1741 3.74735 15.0947 4.28702 15.0947 4.81455Z" fill="white"/>
<path d="M16.2064 1.57655C15.8828 1.95857 15.6385 2.3709 15.4614 2.82567H24.4133C24.224 2.34664 23.9553 1.91006 23.6255 1.52198C23.2347 1.06721 22.734 0.703386 22.1234 0.418393C21.5128 0.139464 20.7983 0 19.9679 0C19.0825 0 18.3314 0.145528 17.7147 0.442648C17.104 0.739768 16.5972 1.11572 16.2064 1.57655Z" fill="white"/>
<path d="M17.7391 14.856C18.3558 15.1289 19.1008 15.2683 19.9679 15.2683C20.6762 15.2683 21.3296 15.1592 21.9158 14.9348C22.502 14.7105 23.0088 14.3891 23.4363 13.9646C23.8637 13.5402 24.1996 13.0308 24.4377 12.4305C24.456 12.376 24.4804 12.3214 24.4988 12.2668H15.4187C15.6019 12.8247 15.8706 13.3158 16.2308 13.7464C16.6216 14.2133 17.1224 14.5831 17.7391 14.856Z" fill="white"/>
<path d="M29.6889 9.2471H26.5381V11.8787H29.6889V9.2471Z" fill="white"/>
<path d="M29.6889 3.21375H26.5381V5.84538H29.6889V3.21375Z" fill="white"/>
<path d="M29.6889 12.2668H26.5381V14.8984H29.6889V12.2668Z" fill="white"/>
<path d="M29.6889 0.194061H26.5381V2.82569H29.6889V0.194061Z" fill="white"/>
<path d="M36.2349 6.22739H26.5381V8.85902H36.2349V6.22739Z" fill="white"/>
<path d="M36.2348 12.2668H33.1267V14.8984H36.2348V12.2668Z" fill="white"/>
<path d="M36.2348 3.21378H33.1267V5.84541H36.2348V3.21378Z" fill="white"/>
<path d="M36.2348 0.194031H33.1267V2.82566H36.2348V0.194031Z" fill="white"/>
<path d="M36.2348 9.24707H33.1267V11.8787H36.2348V9.24707Z" fill="white"/>
<path d="M44.0693 9.2471H40.9368V11.8787H44.0693V9.2471Z" fill="white"/>
<path d="M44.0693 12.2668H40.9368V14.8984H44.0693V12.2668Z" fill="white"/>
<path d="M44.0693 6.22742H40.9368V8.85905H44.0693V6.22742Z" fill="white"/>
<path d="M44.0693 3.25012H40.9368V5.83931H44.0693V3.25012Z" fill="white"/>
<path d="M47.3056 0.194061H37.6943V2.82569H47.3056V0.194061Z" fill="white"/>
<path d="M51.6653 12.2668H48.5144V14.8984H51.6653V12.2668Z" fill="white"/>
<path d="M51.6653 9.2471H48.5144V11.8787H51.6653V9.2471Z" fill="white"/>
<path d="M51.6653 3.21378H48.5144V5.84541H51.6653V3.21378Z" fill="white"/>
<path d="M56.8312 1.26127C56.4037 0.873192 55.8908 0.582136 55.2863 0.400226C54.9932 0.309271 54.6879 0.242571 54.3703 0.194061H48.5083V2.82569H57.857C57.8448 2.80144 57.8387 2.77112 57.8265 2.74687C57.5945 2.14656 57.2586 1.64934 56.8312 1.26127Z" fill="white"/>
<path d="M56.9289 7.95556C57.3319 7.53717 57.6433 7.03389 57.8632 6.44571C57.8937 6.36688 57.9181 6.29412 57.9425 6.22742H53.5399C53.4727 6.22742 53.4056 6.22742 53.3384 6.22742H51.6653H48.5144V8.85905H55.2924C55.3474 8.84086 55.4023 8.82267 55.4512 8.79841C56.0313 8.56799 56.5259 8.37396 56.9289 7.95556Z" fill="white"/>
<path d="M57.9914 3.21378H54.3948C54.8405 3.39569 55.1642 3.9778 55.1642 4.67512C55.1642 5.14809 55.0176 5.56648 54.7856 5.84541H58.083C58.1624 5.57254 58.199 5.30574 58.199 4.87522C58.1929 4.25673 58.1257 3.69887 57.9914 3.21378Z" fill="white"/>
<path d="M12.5727 24.3396H9.44629C9.44629 24.3639 9.44629 24.3881 9.44629 24.4124V26.9712H12.5727C12.5788 26.3527 12.5788 25.6736 12.5788 24.9278C12.5788 24.7277 12.5727 24.5276 12.5727 24.3396Z" fill="white"/>
<path d="M12.353 29.9848C12.4751 29.4755 12.5422 28.8994 12.5545 28.2628C12.5606 27.9778 12.5606 27.6746 12.5667 27.3532H9.44636V28.0323C9.44636 28.7357 9.31202 29.2936 9.04334 29.6938C8.97007 29.8029 8.87236 29.9 8.76245 29.9788H12.353V29.9848Z" fill="white"/>
<path d="M12.3834 21.3199H8.44482C8.46314 21.332 8.48146 21.3441 8.49978 21.3502C8.76846 21.5321 8.96997 21.7746 9.11041 22.0839C9.25086 22.3931 9.33634 22.7509 9.37909 23.1511C9.40962 23.4118 9.42794 23.6726 9.43404 23.9454H12.5666C12.5605 23.4118 12.5422 22.9146 12.5177 22.4477C12.4994 22.0354 12.4567 21.6594 12.3834 21.3199Z" fill="white"/>
<path d="M11.2599 33.6958C11.5469 34.0172 11.6935 34.4053 11.6935 34.8479C11.6935 34.9267 11.6874 35.9272 11.6813 36H14.8566C14.8566 35.9272 14.8627 34.7812 14.8627 34.7024C14.8627 34.2355 14.8138 33.7928 14.7161 33.3805H10.863C11.0157 33.4654 11.15 33.5685 11.2599 33.6958Z" fill="white"/>
<path d="M6.11837 21.3199H2.98584V23.9515H6.11837V21.3199Z" fill="white"/>
<path d="M2.98584 30.3729V33.0046H14.6122C14.5878 32.9318 14.5634 32.853 14.5328 32.7802C14.3069 32.1981 13.9833 31.6948 13.5558 31.2703C13.1834 30.9005 12.7498 30.6033 12.2491 30.379L2.98584 30.3729Z" fill="white"/>
<path d="M12.2857 20.9318C12.2491 20.8105 12.2125 20.6953 12.1636 20.5862C11.8278 19.7251 11.3026 19.1006 10.5882 18.7307C10.2218 18.5366 9.81268 18.3972 9.36692 18.3062H2.98584V20.9378H12.2857V20.9318Z" fill="white"/>
<path d="M6.12448 29.9848L6.11837 29.7605V27.3532H2.98584V29.9848H6.12448Z" fill="white"/>
<path d="M6.11837 24.3396H2.98584V26.9712H6.11837V24.3396Z" fill="white"/>
<path d="M14.2153 22.8722V23.9454H17.3479V22.7388C17.3479 22.569 17.3784 22.381 17.4456 22.187C17.5127 21.9929 17.6104 21.811 17.7509 21.6473C17.8608 21.52 17.989 21.4048 18.1478 21.3138H14.4352C14.2886 21.8414 14.2153 22.3568 14.2153 22.8722Z" fill="white"/>
<path d="M17.7509 29.7423C17.4822 29.3663 17.3479 28.8934 17.3479 28.3173V27.3532H14.2153V28.2264C14.2153 28.8327 14.2886 29.4209 14.4352 29.9788H17.9829C17.8913 29.9181 17.818 29.8333 17.7509 29.7423Z" fill="white"/>
<path d="M23.9182 28.4689V27.3532H20.743V28.6812C20.743 29.1844 20.5781 29.5786 20.2545 29.8696C20.2056 29.9121 20.1568 29.9485 20.1079 29.9848H23.7228C23.8511 29.5179 23.9182 29.0147 23.9182 28.4689Z" fill="white"/>
<path d="M17.3479 24.3396H14.2153V26.9712H17.3479V24.3396Z" fill="white"/>
<path d="M19.0885 18.0576C18.2031 18.0576 17.452 18.2031 16.8353 18.5003C16.2185 18.7974 15.7178 19.1733 15.327 19.6342C14.9912 20.0283 14.7408 20.4588 14.5637 20.9318H23.5522C23.3568 20.4346 23.0881 19.9859 22.7401 19.5796C22.3493 19.1248 21.8485 18.761 21.2379 18.476C20.6334 18.1971 19.9128 18.0576 19.0885 18.0576Z" fill="white"/>
<path d="M21.0364 32.9925C21.6226 32.7681 22.1294 32.4467 22.5569 32.0223C22.9843 31.5978 23.3202 31.0885 23.5583 30.4882C23.5705 30.4518 23.5888 30.4093 23.601 30.373H14.5515C14.7347 30.9126 14.9973 31.3856 15.3453 31.804C15.7361 32.2709 16.243 32.6408 16.8597 32.9136C17.4764 33.1865 18.2214 33.326 19.0885 33.326C19.7968 33.326 20.4441 33.2168 21.0364 32.9925Z" fill="white"/>
<path d="M23.6863 21.3199H19.9675C20.1385 21.429 20.2851 21.5624 20.395 21.708C20.5232 21.8777 20.6148 22.0597 20.6698 22.2476C20.7186 22.4356 20.743 22.5993 20.743 22.7448V23.9515H23.9183V22.8782C23.9183 22.3507 23.8389 21.8353 23.6863 21.3199Z" fill="white"/>
<path d="M23.9182 24.3396H20.7429V26.9712H23.9182V24.3396Z" fill="white"/>
<path d="M34.3235 21.3198H30.8857C30.9101 21.338 30.9406 21.3623 30.9651 21.3865C31.2093 21.6291 31.3375 22.005 31.3375 22.5083C31.3375 22.9691 31.2154 23.3451 30.9651 23.6301C30.8429 23.7695 30.6842 23.8787 30.4827 23.9515H34.0671C34.3052 23.436 34.4212 22.9206 34.4212 22.3992C34.4273 22.0171 34.3907 21.6533 34.3235 21.3198Z" fill="white"/>
<path d="M34.4518 29.9848C34.5495 29.5664 34.5984 29.1117 34.5984 28.6205C34.5984 28.3052 34.5617 27.9777 34.4884 27.6503C34.464 27.5533 34.4396 27.4563 34.4091 27.3593H31.2399C31.4353 27.6442 31.533 28.0081 31.533 28.4507C31.533 28.954 31.417 29.3785 31.1849 29.7241C31.1117 29.8272 31.0262 29.9181 30.9163 29.9909H34.4518V29.9848Z" fill="white"/>
<path d="M34.232 20.9318C34.0488 20.283 33.7252 19.7372 33.2672 19.2885C32.7604 18.7974 32.107 18.4699 31.2949 18.3001H25.0054V20.9318H34.232Z" fill="white"/>
<path d="M28.1623 26.9651V26.7832H29.9209C30.2812 26.7832 30.5743 26.8439 30.8125 26.9651H34.2686C34.232 26.8802 34.1892 26.7893 34.1404 26.7044C33.9816 26.4073 33.7801 26.1465 33.5298 25.9161C33.2855 25.6857 32.9863 25.5159 32.6382 25.4007V25.2916C33.1695 25.0733 33.5725 24.758 33.8534 24.3335H25.0054V26.9651H28.1623Z" fill="white"/>
<path d="M31.6063 33.0046C31.7223 32.9742 31.8383 32.9379 31.9482 32.8954C32.4978 32.6953 32.968 32.3982 33.3588 32.0101C33.7496 31.622 34.0549 31.143 34.2747 30.573C34.2992 30.5063 34.3236 30.4396 34.348 30.3729H25.0054V33.0046H31.6063Z" fill="white"/>
<path d="M28.1562 21.3198H25.0054V23.9515H28.1562V21.3198Z" fill="white"/>
<path d="M28.1562 27.3532H25.0054V29.9848H28.1562V27.3532Z" fill="white"/>
<path d="M59.9885 21.708C60.1167 21.8777 60.2083 22.0597 60.2633 22.2476C60.3121 22.4356 60.3365 22.5993 60.3365 22.7448V23.9515H63.5118V22.8782C63.5118 22.3568 63.4324 21.8353 63.2798 21.3199H59.561C59.732 21.429 59.8786 21.5624 59.9885 21.708Z" fill="white"/>
<path d="M63.3225 29.9849C63.4507 29.518 63.5117 29.0147 63.5117 28.4689V28.2325H60.3365V28.6872C60.3365 29.1905 60.1716 29.5847 59.848 29.8757C59.7991 29.9182 59.7503 29.9545 59.7014 29.9909H63.3225V29.9849Z" fill="white"/>
<path d="M53.8149 23.9515H56.9475V22.7448C56.9475 22.5751 56.978 22.3871 57.0452 22.1931C57.1123 21.999 57.21 21.8171 57.3505 21.6534C57.4604 21.526 57.5886 21.4108 57.7474 21.3199H54.0348C53.8882 21.8414 53.8149 22.3628 53.8149 22.8782V23.9515Z" fill="white"/>
<path d="M63.5117 24.3396H53.8149V26.9712H63.5117V24.3396Z" fill="white"/>
<path d="M58.682 18.0576C57.7966 18.0576 57.0455 18.2031 56.4288 18.5003C55.812 18.7974 55.3113 19.1733 54.9205 19.6342C54.5847 20.0283 54.3343 20.4588 54.1572 20.9318H63.1457C62.9503 20.4346 62.6816 19.9859 62.3336 19.5796C61.9428 19.1248 61.442 18.761 60.8314 18.476C60.2269 18.1971 59.5124 18.0576 58.682 18.0576Z" fill="white"/>
<path d="M54.0348 29.9848H57.5825C57.497 29.9121 57.4177 29.8333 57.3505 29.7423C57.0818 29.3663 56.9475 28.8934 56.9475 28.3173V27.3532H53.8149V28.2264C53.8149 28.8388 53.8882 29.4209 54.0348 29.9848Z" fill="white"/>
<path d="M58.682 33.326C59.3903 33.326 60.0437 33.2168 60.6299 32.9925C61.2161 32.7681 61.7229 32.4467 62.1504 32.0223C62.5778 31.5978 62.9137 31.0885 63.1518 30.4882C63.164 30.4518 63.1823 30.4093 63.1945 30.373H54.1511C54.3343 30.9126 54.5969 31.3856 54.9449 31.804C55.3357 32.2709 55.8426 32.6408 56.4593 32.9136C57.0699 33.1926 57.8149 33.326 58.682 33.326Z" fill="white"/>
<path d="M67.5966 30.3729H64.4458V33.0045H67.5966V30.3729Z" fill="white"/>
<path d="M74.1425 21.3199H71.0344V23.9515H74.1425V21.3199Z" fill="white"/>
<path d="M74.1425 30.3729H71.0344V33.0045H74.1425V30.3729Z" fill="white"/>
<path d="M74.1425 18.3001H71.0344V20.9318H74.1425V18.3001Z" fill="white"/>
<path d="M74.1425 27.3532H71.0344V29.9848H74.1425V27.3532Z" fill="white"/>
<path d="M67.5966 27.3532H64.4458V29.9848H67.5966V27.3532Z" fill="white"/>
<path d="M74.1426 24.3396H64.4458V26.9712H74.1426V24.3396Z" fill="white"/>
<path d="M67.5966 21.3199H64.4458V23.9515H67.5966V21.3199Z" fill="white"/>
<path d="M67.5966 18.3002H64.4458V20.9318H67.5966V18.3002Z" fill="white"/>
<path d="M93.988 30.3729L94.6231 33.0045H97.9999L97.2366 30.3729H93.988Z" fill="white"/>
<path d="M88.7855 24.3395L88.0222 26.9651H91.1242L91.4784 25.2066L91.6616 24.3395H88.7855Z" fill="white"/>
<path d="M87.027 30.3729L86.2637 33.0045H89.5855C89.7076 32.5679 89.8297 32.1253 89.9519 31.6766C90.0679 31.2339 90.1839 30.8034 90.2938 30.3729H87.027Z" fill="white"/>
<path d="M93.2188 27.3532V27.3653H91.045L91.0511 27.3532H87.9064L87.1431 29.9848H97.1208L96.3575 27.3532H93.2188Z" fill="white"/>
<path d="M90.5382 18.3001L89.7749 20.9318H94.489L93.7257 18.3001H90.5382Z" fill="white"/>
<path d="M92.6265 24.3395L92.8035 25.2309L93.1394 26.9651H96.2475L95.4781 24.3395H92.6265Z" fill="white"/>
<path d="M89.6649 21.3199L88.8955 23.9515H91.741L92.0891 22.2294H92.199L92.5471 23.9515H95.3682L94.6049 21.3199H89.6649Z" fill="white"/>
</svg>
